<?xml version="1.0" encoding="UTF-8" standalone="no"?>
<!DOCTYPE svg PUBLIC "-//W3C//DTD SVG 1.1//EN" "http://www.w3.org/Graphics/SVG/1.1/DTD/svg11.dtd">
<svg width="100%" height="100%" viewBox="0 0 250 250" version="1.1" xmlns="http://www.w3.org/2000/svg" xmlns:xlink="http://www.w3.org/1999/xlink" xml:space="preserve" xmlns:serif="http://www.serif.com/" style="fill-rule:evenodd;clip-rule:evenodd;stroke-miterlimit:10;">
    <path d="M70,19.95C42.445,19.95 20,42.395 20,69.95L20,179.95C20,207.505 42.445,229.95 70,229.95L180,229.95C207.555,229.95 230,207.505 230,179.95L230,69.95C230,42.395 207.555,19.95 180,19.95L70,19.95ZM70,29.95L180,29.95C202.155,29.95 220,47.795 220,69.95L220,179.95C220,202.105 202.155,219.95 180,219.95L70,219.95C47.845,219.95 30,202.105 30,179.95L30,69.95C30,47.8 47.845,29.95 70,29.95Z" style="fill:white;fill-rule:nonzero;"/>
    <path d="M225,155L115,155" style="fill:none;fill-rule:nonzero;stroke:white;stroke-width:10px;"/>
    <path d="M145,225L83.75,121.64" style="fill:none;fill-rule:nonzero;stroke:white;stroke-width:10px;"/>
    <path d="M160,120L120,55" style="fill:none;fill-rule:nonzero;stroke:white;stroke-width:10px;"/>
    <path d="M140,25L33.75,205.625" style="fill:none;fill-rule:nonzero;stroke:white;stroke-width:10px;"/>
    <path d="M210,40L140,155" style="fill:none;fill-rule:nonzero;stroke:white;stroke-width:10px;"/>
    <path d="M85.365,122.68L104.025,155L141.34,155" style="fill:none;fill-rule:nonzero;stroke:white;stroke-width:10px;"/>
    <path d="M141.34,90.365L100,90" style="fill:none;fill-rule:nonzero;stroke:white;stroke-width:10px;"/>
</svg>
