<?xml version="1.0" encoding="UTF-8" standalone="no"?>
<!DOCTYPE svg PUBLIC "-//W3C//DTD SVG 1.1//EN" "http://www.w3.org/Graphics/SVG/1.1/DTD/svg11.dtd">
<svg width="100%" height="100%" viewBox="0 0 250 250" version="1.1" xmlns="http://www.w3.org/2000/svg" xmlns:xlink="http://www.w3.org/1999/xlink" xml:space="preserve" xmlns:serif="http://www.serif.com/" style="fill-rule:evenodd;clip-rule:evenodd;stroke-linejoin:round;stroke-miterlimit:2;">
    <g transform="matrix(4.1532,0,0,4.1532,-394.151,-394.151)">
        <g transform="matrix(1,0,0,1,-481.486,-439.281)">
            <path d="M606.415,573.481C600.851,573.481 596.299,568.981 596.299,563.481C596.299,557.981 600.851,553.481 606.415,553.481C611.979,553.481 616.53,557.981 616.53,563.481C616.53,568.981 611.979,573.481 606.415,573.481ZM606.415,550.981C599.435,550.981 593.77,556.581 593.77,563.481C593.77,570.381 599.435,575.981 606.415,575.981C613.395,575.981 619.06,570.381 619.06,563.481C619.06,556.581 613.395,550.981 606.415,550.981Z" style="fill:white;fill-rule:nonzero;"/>
        </g>
        <g transform="matrix(1,0,0,1,-481.486,-439.281)">
            <path d="M606.415,568.481C603.582,568.481 601.356,566.281 601.356,563.481C601.356,561.781 602.268,560.281 603.582,559.381C603.784,560.681 604.998,561.781 606.415,561.781C607.831,561.781 609.045,560.781 609.247,559.381C610.563,560.281 611.473,561.781 611.473,563.481C611.473,566.181 609.247,568.481 606.415,568.481ZM606.819,558.781C606.819,558.981 606.617,559.181 606.415,559.181C606.212,559.181 606.01,558.981 606.01,558.781C606.01,558.581 606.212,558.381 606.415,558.381C606.617,558.481 606.819,558.581 606.819,558.781ZM606.415,555.981C602.268,555.981 598.828,559.381 598.828,563.481C598.828,567.581 602.268,570.981 606.415,570.981C610.563,570.981 614.002,567.581 614.002,563.481C614.002,559.281 610.563,555.981 606.415,555.981Z" style="fill:white;fill-rule:nonzero;"/>
        </g>
        <g transform="matrix(1,0,0,1,-481.486,-439.281)">
            <path d="M581.023,539.281C581.732,539.281 582.339,539.881 582.339,540.581C582.339,541.281 581.732,541.781 581.023,541.781C580.315,541.781 579.709,541.181 579.709,540.481C579.709,539.781 580.315,539.281 581.023,539.281ZM581.023,544.281C583.148,544.281 584.868,542.581 584.868,540.481C584.868,538.381 583.148,536.681 581.023,536.681C578.899,536.681 577.18,538.381 577.18,540.481C577.18,542.581 578.899,544.281 581.023,544.281Z" style="fill:white;fill-rule:nonzero;"/>
        </g>
        <g transform="matrix(1,0,0,1,-481.486,-439.281)">
            <path d="M631.604,539.281C632.312,539.281 632.918,539.881 632.918,540.581C632.918,541.281 632.312,541.781 631.604,541.781C630.896,541.781 630.288,541.181 630.288,540.481C630.288,539.781 630.896,539.281 631.604,539.281ZM631.604,544.281C633.728,544.281 635.447,542.581 635.447,540.481C635.447,538.381 633.728,536.681 631.604,536.681C629.479,536.681 627.76,538.381 627.76,540.481C627.76,542.581 629.479,544.281 631.604,544.281Z" style="fill:white;fill-rule:nonzero;"/>
        </g>
        <g transform="matrix(1,0,0,1,-481.486,-439.281)">
            <path d="M621.487,541.781C622.195,541.781 622.803,541.181 622.803,540.481C622.803,539.781 622.195,539.181 621.487,539.181C620.779,539.181 620.172,539.781 620.172,540.481C620.172,541.181 620.779,541.781 621.487,541.781Z" style="fill:white;fill-rule:nonzero;"/>
        </g>
        <g transform="matrix(1,0,0,1,-481.486,-439.281)">
            <path d="M625.23,541.781C625.938,541.781 626.545,541.181 626.545,540.481C626.545,539.781 625.938,539.181 625.23,539.181C624.522,539.181 623.915,539.781 623.915,540.481C624.017,541.181 624.522,541.781 625.23,541.781Z" style="fill:white;fill-rule:nonzero;"/>
        </g>
        <g transform="matrix(1,0,0,1,-481.486,-439.281)">
            <path d="M631.604,545.481C630.896,545.481 630.288,546.081 630.288,546.781C630.288,547.481 630.896,547.981 631.604,547.981C632.312,547.981 632.918,547.381 632.918,546.781C632.817,546.081 632.312,545.481 631.604,545.481Z" style="fill:white;fill-rule:nonzero;"/>
        </g>
        <g transform="matrix(1,0,0,1,-481.486,-439.281)">
            <path d="M631.604,549.281C630.896,549.281 630.288,549.881 630.288,550.581C630.288,551.281 630.896,551.881 631.604,551.881C632.312,551.881 632.918,551.281 632.918,550.581C632.918,549.881 632.312,549.281 631.604,549.281Z" style="fill:white;fill-rule:nonzero;"/>
        </g>
        <g transform="matrix(1,0,0,1,-481.486,-439.281)">
            <path d="M631.604,552.981C630.896,552.981 630.288,553.581 630.288,554.281C630.288,554.981 630.896,555.581 631.604,555.581C632.312,555.581 632.918,554.981 632.918,554.281C632.918,553.581 632.312,552.981 631.604,552.981Z" style="fill:white;fill-rule:nonzero;"/>
        </g>
        <g transform="matrix(1,0,0,1,-481.486,-439.281)">
            <path d="M581.023,545.481C580.315,545.481 579.709,546.081 579.709,546.781C579.709,547.481 580.315,547.981 581.023,547.981C581.732,547.981 582.339,547.381 582.339,546.781C582.237,546.081 581.732,545.481 581.023,545.481Z" style="fill:white;fill-rule:nonzero;"/>
        </g>
        <g transform="matrix(1,0,0,1,-481.486,-439.281)">
            <path d="M581.023,549.281C580.315,549.281 579.709,549.881 579.709,550.581C579.709,551.281 580.315,551.881 581.023,551.881C581.732,551.881 582.339,551.281 582.339,550.581C582.339,549.881 581.732,549.281 581.023,549.281Z" style="fill:white;fill-rule:nonzero;"/>
        </g>
        <g transform="matrix(1,0,0,1,-481.486,-439.281)">
            <path d="M581.023,552.981C580.315,552.981 579.709,553.581 579.709,554.281C579.709,554.981 580.315,555.581 581.023,555.581C581.732,555.581 582.339,554.981 582.339,554.281C582.339,553.581 581.732,552.981 581.023,552.981Z" style="fill:white;fill-rule:nonzero;"/>
        </g>
        <g transform="matrix(1,0,0,1,-481.486,-439.281)">
            <path d="M617.644,541.781C618.352,541.781 618.958,541.181 618.958,540.481C618.958,539.781 618.352,539.181 617.644,539.181C616.936,539.181 616.328,539.781 616.328,540.481C616.43,541.181 616.936,541.781 617.644,541.781Z" style="fill:white;fill-rule:nonzero;"/>
        </g>
        <g transform="matrix(1,0,0,1,-481.486,-439.281)">
            <path d="M613.9,541.781C614.608,541.781 615.216,541.181 615.216,540.481C615.216,539.781 614.608,539.181 613.9,539.181C613.192,539.181 612.585,539.781 612.585,540.481C612.585,541.181 613.192,541.781 613.9,541.781Z" style="fill:white;fill-rule:nonzero;"/>
        </g>
        <g transform="matrix(1,0,0,1,-481.486,-439.281)">
            <path d="M610.057,541.781C610.765,541.781 611.371,541.181 611.371,540.481C611.371,539.781 610.765,539.181 610.057,539.181C609.349,539.181 608.741,539.781 608.741,540.481C608.843,541.181 609.349,541.781 610.057,541.781Z" style="fill:white;fill-rule:nonzero;"/>
        </g>
        <g transform="matrix(1,0,0,1,-481.486,-439.281)">
            <path d="M606.313,541.781C607.021,541.781 607.527,541.181 607.527,540.481C607.527,539.781 606.921,539.181 606.313,539.181C605.605,539.181 604.998,539.781 604.998,540.481C604.998,541.181 605.605,541.781 606.313,541.781Z" style="fill:white;fill-rule:nonzero;"/>
        </g>
        <g transform="matrix(1,0,0,1,-481.486,-439.281)">
            <path d="M602.47,541.781C603.178,541.781 603.784,541.181 603.784,540.481C603.784,539.781 603.178,539.181 602.47,539.181C601.762,539.181 601.154,539.781 601.154,540.481C601.256,541.181 601.762,541.781 602.47,541.781Z" style="fill:white;fill-rule:nonzero;"/>
        </g>
        <g transform="matrix(1,0,0,1,-481.486,-439.281)">
            <path d="M598.727,541.781C599.435,541.781 600.042,541.181 600.042,540.481C600.042,539.781 599.435,539.181 598.727,539.181C598.019,539.181 597.411,539.781 597.411,540.481C597.411,541.181 598.019,541.781 598.727,541.781Z" style="fill:white;fill-rule:nonzero;"/>
        </g>
        <g transform="matrix(1,0,0,1,-481.486,-439.281)">
            <path d="M594.883,541.781C595.591,541.781 596.197,541.181 596.197,540.481C596.197,539.781 595.591,539.181 594.883,539.181C594.175,539.181 593.567,539.781 593.567,540.481C593.669,541.181 594.175,541.781 594.883,541.781Z" style="fill:white;fill-rule:nonzero;"/>
        </g>
        <g transform="matrix(1,0,0,1,-481.486,-439.281)">
            <path d="M591.14,541.781C591.848,541.781 592.455,541.181 592.455,540.481C592.455,539.781 591.848,539.181 591.14,539.181C590.432,539.181 589.824,539.781 589.824,540.481C589.824,541.181 590.432,541.781 591.14,541.781Z" style="fill:white;fill-rule:nonzero;"/>
        </g>
        <g transform="matrix(1,0,0,1,-481.486,-439.281)">
            <path d="M587.296,541.781C588.004,541.781 588.61,541.181 588.61,540.481C588.61,539.781 588.004,539.181 587.296,539.181C586.588,539.181 585.98,539.781 585.98,540.481C586.082,541.181 586.588,541.781 587.296,541.781Z" style="fill:white;fill-rule:nonzero;"/>
        </g>
        <g transform="matrix(1,0,0,1,-481.486,-439.281)">
            <path d="M631.604,589.281C630.896,589.281 630.288,588.681 630.288,587.981C630.288,587.281 630.896,586.681 631.604,586.681C632.312,586.681 632.918,587.281 632.918,587.981C632.918,588.681 632.312,589.281 631.604,589.281ZM631.604,584.281C629.479,584.281 627.76,585.981 627.76,588.081C627.76,590.181 629.479,591.881 631.604,591.881C633.728,591.881 635.447,590.181 635.447,588.081C635.346,585.981 633.627,584.281 631.604,584.281Z" style="fill:white;fill-rule:nonzero;"/>
        </g>
        <g transform="matrix(1,0,0,1,-481.486,-439.281)">
            <path d="M581.023,589.281C580.315,589.281 579.709,588.681 579.709,587.981C579.709,587.281 580.315,586.681 581.023,586.681C581.732,586.681 582.339,587.281 582.339,587.981C582.339,588.681 581.732,589.281 581.023,589.281ZM581.023,584.281C578.899,584.281 577.18,585.981 577.18,588.081C577.18,590.181 578.899,591.881 581.023,591.881C583.148,591.881 584.868,590.181 584.868,588.081C584.767,585.981 583.047,584.281 581.023,584.281Z" style="fill:white;fill-rule:nonzero;"/>
        </g>
        <g transform="matrix(1,0,0,1,-481.486,-439.281)">
            <path d="M591.14,586.781C590.432,586.781 589.824,587.381 589.824,588.081C589.824,588.781 590.432,589.381 591.14,589.381C591.848,589.381 592.455,588.781 592.455,588.081C592.354,587.381 591.848,586.781 591.14,586.781Z" style="fill:white;fill-rule:nonzero;"/>
        </g>
        <g transform="matrix(1,0,0,1,-481.486,-439.281)">
            <path d="M587.296,586.781C586.588,586.781 585.98,587.381 585.98,588.081C585.98,588.781 586.588,589.381 587.296,589.381C588.004,589.381 588.61,588.781 588.61,588.081C588.61,587.381 588.004,586.781 587.296,586.781Z" style="fill:white;fill-rule:nonzero;"/>
        </g>
        <g transform="matrix(1,0,0,1,-481.486,-439.281)">
            <path d="M581.023,583.081C581.732,583.081 582.339,582.481 582.339,581.781C582.339,581.081 581.732,580.481 581.023,580.481C580.315,580.481 579.709,581.081 579.709,581.781C579.709,582.481 580.315,583.081 581.023,583.081Z" style="fill:white;fill-rule:nonzero;"/>
        </g>
        <g transform="matrix(1,0,0,1,-481.486,-439.281)">
            <path d="M581.023,579.281C581.732,579.281 582.339,578.681 582.339,577.981C582.339,577.281 581.732,576.781 581.023,576.781C580.315,576.781 579.709,577.381 579.709,578.081C579.709,578.781 580.315,579.281 581.023,579.281Z" style="fill:white;fill-rule:nonzero;"/>
        </g>
        <g transform="matrix(1,0,0,1,-481.486,-439.281)">
            <path d="M581.023,575.581C581.732,575.581 582.339,574.981 582.339,574.281C582.339,573.581 581.732,572.981 581.023,572.981C580.315,572.981 579.709,573.581 579.709,574.281C579.709,574.981 580.315,575.581 581.023,575.581Z" style="fill:white;fill-rule:nonzero;"/>
        </g>
        <g transform="matrix(1,0,0,1,-481.486,-439.281)">
            <path d="M631.604,583.081C632.312,583.081 632.918,582.481 632.918,581.781C632.918,581.081 632.312,580.481 631.604,580.481C630.896,580.481 630.288,581.081 630.288,581.781C630.288,582.481 630.896,583.081 631.604,583.081Z" style="fill:white;fill-rule:nonzero;"/>
        </g>
        <g transform="matrix(1,0,0,1,-481.486,-439.281)">
            <path d="M631.604,579.281C632.312,579.281 632.918,578.681 632.918,577.981C632.918,577.281 632.312,576.781 631.604,576.781C630.896,576.781 630.288,577.381 630.288,578.081C630.288,578.781 630.896,579.281 631.604,579.281Z" style="fill:white;fill-rule:nonzero;"/>
        </g>
        <g transform="matrix(1,0,0,1,-481.486,-439.281)">
            <path d="M631.604,575.581C632.312,575.581 632.918,574.981 632.918,574.281C632.918,573.581 632.312,572.981 631.604,572.981C630.896,572.981 630.288,573.581 630.288,574.281C630.288,574.981 630.896,575.581 631.604,575.581Z" style="fill:white;fill-rule:nonzero;"/>
        </g>
        <g transform="matrix(1,0,0,1,-481.486,-439.281)">
            <path d="M594.883,586.781C594.175,586.781 593.567,587.381 593.567,588.081C593.567,588.781 594.175,589.381 594.883,589.381C595.591,589.381 596.197,588.781 596.197,588.081C596.197,587.381 595.591,586.781 594.883,586.781Z" style="fill:white;fill-rule:nonzero;"/>
        </g>
        <g transform="matrix(1,0,0,1,-481.486,-439.281)">
            <path d="M598.727,586.781C598.019,586.781 597.411,587.381 597.411,588.081C597.411,588.781 598.019,589.381 598.727,589.381C599.435,589.381 600.042,588.781 600.042,588.081C599.94,587.381 599.435,586.781 598.727,586.781Z" style="fill:white;fill-rule:nonzero;"/>
        </g>
        <g transform="matrix(1,0,0,1,-481.486,-439.281)">
            <path d="M602.47,586.781C601.762,586.781 601.154,587.381 601.154,588.081C601.154,588.781 601.762,589.381 602.47,589.381C603.178,589.381 603.784,588.781 603.784,588.081C603.784,587.381 603.178,586.781 602.47,586.781Z" style="fill:white;fill-rule:nonzero;"/>
        </g>
        <g transform="matrix(1,0,0,1,-481.486,-439.281)">
            <path d="M606.313,586.781C605.605,586.781 604.998,587.381 604.998,588.081C604.998,588.781 605.605,589.381 606.313,589.381C607.021,589.381 607.527,588.781 607.527,588.081C607.527,587.381 607.021,586.781 606.313,586.781Z" style="fill:white;fill-rule:nonzero;"/>
        </g>
        <g transform="matrix(1,0,0,1,-481.486,-439.281)">
            <path d="M610.057,586.781C609.349,586.781 608.741,587.381 608.741,588.081C608.741,588.781 609.349,589.381 610.057,589.381C610.765,589.381 611.371,588.781 611.371,588.081C611.371,587.381 610.765,586.781 610.057,586.781Z" style="fill:white;fill-rule:nonzero;"/>
        </g>
        <g transform="matrix(1,0,0,1,-481.486,-439.281)">
            <path d="M613.9,586.781C613.192,586.781 612.585,587.381 612.585,588.081C612.585,588.781 613.192,589.381 613.9,589.381C614.608,589.381 615.216,588.781 615.216,588.081C615.114,587.381 614.608,586.781 613.9,586.781Z" style="fill:white;fill-rule:nonzero;"/>
        </g>
        <g transform="matrix(1,0,0,1,-481.486,-439.281)">
            <path d="M617.644,586.781C616.936,586.781 616.328,587.381 616.328,588.081C616.328,588.781 616.936,589.381 617.644,589.381C618.352,589.381 618.958,588.781 618.958,588.081C618.958,587.381 618.352,586.781 617.644,586.781Z" style="fill:white;fill-rule:nonzero;"/>
        </g>
        <g transform="matrix(1,0,0,1,-481.486,-439.281)">
            <path d="M621.487,586.781C620.779,586.781 620.172,587.381 620.172,588.081C620.172,588.781 620.779,589.381 621.487,589.381C622.195,589.381 622.803,588.781 622.803,588.081C622.701,587.381 622.195,586.781 621.487,586.781Z" style="fill:white;fill-rule:nonzero;"/>
        </g>
        <g transform="matrix(1,0,0,1,-481.486,-439.281)">
            <path d="M625.23,586.781C624.522,586.781 623.915,587.381 623.915,588.081C623.915,588.781 624.522,589.381 625.23,589.381C625.938,589.381 626.545,588.781 626.545,588.081C626.545,587.381 625.938,586.781 625.23,586.781Z" style="fill:white;fill-rule:nonzero;"/>
        </g>
        <g transform="matrix(1,0,0,1,-481.486,-439.281)">
            <path d="M580.417,564.681L588.105,564.681C588.813,564.681 589.42,564.081 589.42,563.481C589.42,562.781 588.813,562.181 588.105,562.181L580.417,562.181C594.479,545.281 618.25,545.281 632.312,562.181L625.23,562.181C624.522,562.181 623.915,562.781 623.915,563.481C623.915,564.181 624.522,564.681 625.23,564.681L632.412,564.681C618.25,581.581 594.479,581.581 580.417,564.681ZM636.155,562.981C636.055,562.881 635.953,562.681 636.055,562.681C628.771,552.681 617.947,546.981 606.516,546.981C594.983,546.981 584.261,552.681 576.978,562.681C576.674,563.081 576.674,563.681 576.978,564.181C584.261,574.181 595.085,579.881 606.516,579.881C617.947,579.881 628.771,574.181 636.055,564.181C636.257,563.781 636.257,563.381 636.155,562.981Z" style="fill:white;fill-rule:nonzero;"/>
        </g>
    </g>
</svg>
