<?xml version="1.0" encoding="UTF-8" standalone="no"?>
<!DOCTYPE svg PUBLIC "-//W3C//DTD SVG 1.1//EN" "http://www.w3.org/Graphics/SVG/1.1/DTD/svg11.dtd">
<svg width="100%" height="100%" viewBox="0 0 512 512" version="1.1" xmlns="http://www.w3.org/2000/svg" xmlns:xlink="http://www.w3.org/1999/xlink" xml:space="preserve" xmlns:serif="http://www.serif.com/" style="fill-rule:evenodd;clip-rule:evenodd;stroke-linejoin:round;stroke-miterlimit:2;">
    <path d="M106.667,405.333L234.667,405.333L234.667,448L149.333,448C137.63,448 128,457.63 128,469.333C128,481.036 137.63,490.667 149.333,490.667L362.667,490.667C374.37,490.667 384,481.036 384,469.333C384,457.63 374.37,448 362.667,448L277.333,448L277.333,405.333L405.333,405.333C455.813,405.27 499.698,369.445 509.867,320L2.133,320C12.302,369.445 56.187,405.27 106.667,405.333Z" style="fill:rgb(9,188,138);fill-rule:nonzero;"/>
    <path d="M405.333,21.333L106.667,21.333C48.178,21.403 0.07,69.511 0,128L0,277.333L512,277.333L512,128C511.93,69.511 463.822,21.403 405.333,21.333Z" style="fill:rgb(9,188,138);fill-rule:nonzero;"/>
</svg>
