<?xml version="1.0" encoding="UTF-8" standalone="no"?>
<!DOCTYPE svg PUBLIC "-//W3C//DTD SVG 1.1//EN" "http://www.w3.org/Graphics/SVG/1.1/DTD/svg11.dtd">
<svg width="100%" height="100%" viewBox="0 0 250 250" version="1.1" xmlns="http://www.w3.org/2000/svg" xmlns:xlink="http://www.w3.org/1999/xlink" xml:space="preserve" xmlns:serif="http://www.serif.com/" style="fill-rule:evenodd;clip-rule:evenodd;stroke-linejoin:round;stroke-miterlimit:2;">
    <g>
        <g id="Frontend">
            <g transform="matrix(4.23903,0,0,4.2882,-2446.25,-674.194)">
                <path d="M579.81,212.581L579.81,169.981L632.918,169.981L632.918,212.481L579.81,212.481L579.81,212.581ZM633.02,159.981L633.02,162.481L602.672,162.481C601.964,162.481 601.356,163.081 601.356,163.781C601.356,164.481 601.964,165.081 602.672,165.081L633.02,165.081L633.02,167.581L579.81,167.581L579.81,160.081L633.02,160.081L633.02,159.981ZM634.233,157.481L578.596,157.481C577.888,157.481 577.281,158.081 577.281,158.781L577.281,213.781C577.281,214.481 577.888,215.081 578.596,215.081L634.233,215.081C634.941,215.081 635.549,214.481 635.549,213.781L635.549,158.781C635.549,158.081 634.941,157.481 634.233,157.481Z" style="fill:white;fill-rule:nonzero;"/>
            </g>
            <g transform="matrix(4.23903,0,0,4.2882,-2446.25,-674.194)">
                <path d="M591.241,162.481C591.967,162.481 592.556,163.063 592.556,163.781C592.556,164.499 591.967,165.081 591.241,165.081C590.515,165.081 589.926,164.499 589.926,163.781C589.926,163.063 590.515,162.481 591.241,162.481Z" style="fill:white;fill-rule:nonzero;"/>
            </g>
            <g transform="matrix(4.23903,0,0,4.2882,-2446.25,-674.194)">
                <path d="M598.828,192.481C599.554,192.481 600.143,193.063 600.143,193.781C600.143,194.499 599.554,195.081 598.828,195.081C598.102,195.081 597.513,194.499 597.513,193.781C597.513,193.063 598.102,192.481 598.828,192.481Z" style="fill:white;fill-rule:nonzero;"/>
            </g>
            <g transform="matrix(4.23903,0,0,4.2882,-2446.25,-674.194)">
                <path d="M587.396,162.481C588.123,162.481 588.712,163.063 588.712,163.781C588.712,164.499 588.123,165.081 587.396,165.081C586.671,165.081 586.082,164.499 586.082,163.781C586.082,163.063 586.671,162.481 587.396,162.481Z" style="fill:white;fill-rule:nonzero;"/>
            </g>
            <g transform="matrix(4.23903,0,0,4.2882,-2446.25,-674.194)">
                <path d="M583.654,162.481C584.38,162.481 584.969,163.063 584.969,163.781C584.969,164.499 584.38,165.081 583.654,165.081C582.928,165.081 582.339,164.499 582.339,163.781C582.339,163.063 582.928,162.481 583.654,162.481Z" style="fill:white;fill-rule:nonzero;"/>
            </g>
            <g transform="matrix(4.23903,0,0,4.2882,-2446.25,-674.194)">
                <path d="M596.299,206.381L596.299,190.081L626.646,190.081L626.646,206.381L596.299,206.381ZM586.183,197.581L593.77,197.581L593.77,206.381L586.183,206.381L586.183,197.581ZM593.77,176.281L593.77,183.781L586.183,183.781L586.183,176.281L593.77,176.281ZM586.183,186.281L593.77,186.281L593.77,195.081L586.183,195.081L586.183,186.281ZM626.646,187.581L596.299,187.581L596.299,176.281L626.646,176.281L626.646,187.581ZM627.962,173.781L584.868,173.781C584.16,173.781 583.553,174.381 583.553,175.081L583.553,207.581C583.553,208.281 584.16,208.881 584.868,208.881L627.86,208.881C628.568,208.881 629.176,208.281 629.176,207.581L629.176,174.981C629.176,174.381 628.568,173.781 627.962,173.781Z" style="fill:white;fill-rule:nonzero;"/>
            </g>
            <g transform="matrix(4.23903,0,0,4.2882,-2446.25,-674.194)">
                <rect x="602.57" y="182.581" width="2.53" height="3.8" style="fill:white;fill-rule:nonzero;"/>
            </g>
            <g transform="matrix(4.23903,0,0,4.2882,-2446.25,-674.194)">
                <rect x="588.712" y="187.581" width="2.529" height="2.5" style="fill:white;fill-rule:nonzero;"/>
            </g>
            <g transform="matrix(4.23903,0,0,4.2882,-2446.25,-674.194)">
                <rect x="588.712" y="191.281" width="2.529" height="2.5" style="fill:white;fill-rule:nonzero;"/>
            </g>
            <g transform="matrix(4.23903,0,0,4.2882,-2446.25,-674.194)">
                <rect x="588.712" y="198.781" width="2.529" height="2.5" style="fill:white;fill-rule:nonzero;"/>
            </g>
            <g transform="matrix(4.23903,0,0,4.2882,-2446.25,-674.194)">
                <rect x="588.712" y="202.581" width="2.529" height="2.5" style="fill:white;fill-rule:nonzero;"/>
            </g>
            <g transform="matrix(4.23903,0,0,4.2882,-2446.25,-674.194)">
                <rect x="606.415" y="180.081" width="2.528" height="6.3" style="fill:white;fill-rule:nonzero;"/>
            </g>
            <g transform="matrix(4.23903,0,0,4.2882,-2446.25,-674.194)">
                <rect x="610.157" y="178.781" width="2.53" height="7.5" style="fill:white;fill-rule:nonzero;"/>
            </g>
            <g transform="matrix(4.23903,0,0,4.2882,-2446.25,-674.194)">
                <rect x="614.002" y="181.281" width="2.528" height="5" style="fill:white;fill-rule:nonzero;"/>
            </g>
            <g transform="matrix(4.23903,0,0,4.2882,-2446.25,-674.194)">
                <rect x="617.846" y="178.781" width="2.529" height="7.5" style="fill:white;fill-rule:nonzero;"/>
            </g>
            <g transform="matrix(4.23903,0,0,4.2882,-2446.25,-674.194)">
                <path d="M608.943,192.581L602.57,192.581C601.862,192.581 601.256,193.181 601.256,193.881C601.256,194.581 601.862,195.181 602.57,195.181L608.943,195.181C609.651,195.181 610.259,194.581 610.259,193.881C610.259,193.181 609.651,192.581 608.943,192.581Z" style="fill:white;fill-rule:nonzero;"/>
            </g>
            <g transform="matrix(4.23903,0,0,4.2882,-2446.25,-674.194)">
                <path d="M614.002,192.481C614.728,192.481 615.316,193.063 615.316,193.781C615.316,194.499 614.728,195.081 614.002,195.081C613.275,195.081 612.687,194.499 612.687,193.781C612.687,193.063 613.275,192.481 614.002,192.481Z" style="fill:white;fill-rule:nonzero;"/>
            </g>
            <g transform="matrix(4.23903,0,0,4.2882,-2446.25,-674.194)">
                <path d="M624.117,192.581L617.744,192.581C617.036,192.581 616.43,193.181 616.43,193.881C616.43,194.581 617.036,195.181 617.744,195.181L624.117,195.181C624.826,195.181 625.433,194.581 625.433,193.881C625.433,193.181 624.826,192.581 624.117,192.581Z" style="fill:white;fill-rule:nonzero;"/>
            </g>
            <g transform="matrix(4.23903,0,0,4.2882,-2446.25,-674.194)">
                <path d="M598.828,196.281C599.554,196.281 600.143,196.863 600.143,197.581C600.143,198.299 599.554,198.881 598.828,198.881C598.102,198.881 597.513,198.299 597.513,197.581C597.513,196.863 598.102,196.281 598.828,196.281Z" style="fill:white;fill-rule:nonzero;"/>
            </g>
            <g transform="matrix(4.23903,0,0,4.2882,-2446.25,-674.194)">
                <path d="M608.943,196.281L602.57,196.281C601.862,196.281 601.256,196.881 601.256,197.581C601.256,198.281 601.862,198.881 602.57,198.881L608.943,198.881C609.651,198.881 610.259,198.281 610.259,197.581C610.259,196.881 609.651,196.281 608.943,196.281Z" style="fill:white;fill-rule:nonzero;"/>
            </g>
            <g transform="matrix(4.23903,0,0,4.2882,-2446.25,-674.194)">
                <path d="M614.002,196.281C614.728,196.281 615.316,196.863 615.316,197.581C615.316,198.299 614.728,198.881 614.002,198.881C613.275,198.881 612.687,198.299 612.687,197.581C612.687,196.863 613.275,196.281 614.002,196.281Z" style="fill:white;fill-rule:nonzero;"/>
            </g>
            <g transform="matrix(4.23903,0,0,4.2882,-2446.25,-674.194)">
                <path d="M624.117,196.281L617.744,196.281C617.036,196.281 616.43,196.881 616.43,197.581C616.43,198.281 617.036,198.881 617.744,198.881L624.117,198.881C624.826,198.881 625.433,198.281 625.433,197.581C625.433,196.881 624.826,196.281 624.117,196.281Z" style="fill:white;fill-rule:nonzero;"/>
            </g>
            <g transform="matrix(4.23903,0,0,4.2882,-2446.25,-674.194)">
                <path d="M598.828,199.981C599.554,199.981 600.143,200.563 600.143,201.281C600.143,201.999 599.554,202.581 598.828,202.581C598.102,202.581 597.513,201.999 597.513,201.281C597.513,200.563 598.102,199.981 598.828,199.981Z" style="fill:white;fill-rule:nonzero;"/>
            </g>
            <g transform="matrix(4.23903,0,0,4.2882,-2446.25,-674.194)">
                <path d="M608.943,200.081L602.57,200.081C601.862,200.081 601.256,200.681 601.256,201.381C601.256,202.081 601.862,202.681 602.57,202.681L608.943,202.681C609.651,202.681 610.259,202.081 610.259,201.381C610.259,200.681 609.651,200.081 608.943,200.081Z" style="fill:white;fill-rule:nonzero;"/>
            </g>
        </g>
    </g>
</svg>
