<?xml version="1.0" encoding="UTF-8" standalone="no"?>
<!DOCTYPE svg PUBLIC "-//W3C//DTD SVG 1.1//EN" "http://www.w3.org/Graphics/SVG/1.1/DTD/svg11.dtd">
<svg width="100%" height="100%" viewBox="0 0 250 250" version="1.1" xmlns="http://www.w3.org/2000/svg" xmlns:xlink="http://www.w3.org/1999/xlink" xml:space="preserve" xmlns:serif="http://www.serif.com/" style="fill-rule:evenodd;clip-rule:evenodd;stroke-linejoin:round;stroke-miterlimit:2;">
    <g transform="matrix(1.06957,0,0,1.06957,-8.69563,-8.69563)">
        <path d="M233.965,110.449L139.551,16.035C135.547,12.012 130.273,10 125,10C119.727,10 114.453,12.012 110.449,16.035L91.777,34.707L114.883,57.813C122.559,53.301 132.559,54.277 139.141,60.859C145.723,67.441 146.68,77.441 142.168,85.098L164.883,107.813C172.559,103.301 182.559,104.277 189.141,110.859C196.953,118.672 196.953,131.328 189.141,139.141C181.328,146.953 168.672,146.953 160.859,139.141C154.277,132.559 153.301,122.559 157.813,114.883L135.098,92.168C133.477,93.125 131.777,93.828 130,94.277L130,155.703C138.613,157.93 145,165.684 145,175C145,186.055 136.055,195 125,195C113.945,195 105,186.055 105,175C105,165.684 111.387,157.93 120,155.703L120,94.277C116.66,93.418 113.477,91.758 110.859,89.141C104.277,82.559 103.32,72.559 107.832,64.902L84.707,41.777L16.035,110.449C7.988,118.477 7.988,131.523 16.035,139.551L110.449,233.965C114.453,237.988 119.727,240 125,240C130.273,240 135.547,237.988 139.551,233.965L233.965,139.551C242.012,131.523 242.012,118.477 233.965,110.449Z" style="fill:rgb(232,78,49);fill-rule:nonzero;"/>
    </g>
</svg>
