<?xml version="1.0" encoding="UTF-8" standalone="no"?>
<!DOCTYPE svg PUBLIC "-//W3C//DTD SVG 1.1//EN" "http://www.w3.org/Graphics/SVG/1.1/DTD/svg11.dtd">
<svg width="100%" height="100%" viewBox="0 0 250 250" version="1.1" xmlns="http://www.w3.org/2000/svg" xmlns:xlink="http://www.w3.org/1999/xlink" xml:space="preserve" xmlns:serif="http://www.serif.com/" style="fill-rule:evenodd;clip-rule:evenodd;stroke-linejoin:round;stroke-miterlimit:2;">
    <g transform="matrix(1.06957,0,0,1.06957,-8.69565,-8.69565)">
        <path d="M226.367,11.621C225.43,10.586 224.082,10 222.676,10L27.324,10C25.918,10 24.57,10.586 23.633,11.621C22.676,12.656 22.207,14.043 22.344,15.449L39.941,212.578C40.117,214.648 41.563,216.367 43.555,216.953L123.613,239.805C124.043,239.941 124.512,240 124.98,240C125.449,240 125.898,239.941 126.348,239.805L206.465,216.953C208.457,216.367 209.883,214.648 210.078,212.578L227.656,15.449C227.793,14.043 227.324,12.656 226.367,11.621ZM184.238,79.59L90.176,79.59L92.422,105.039L181.973,105.039L175.254,180.254L124.961,195.449L124.473,195.293L74.766,180.234L72.051,149.59L96.406,149.59L97.461,161.484L125.254,167.305L152.539,161.484L155.449,129.297L70.234,129.297L63.613,55.273L186.406,55.273L184.238,79.59Z" style="fill:rgb(233,98,40);fill-rule:nonzero;"/>
    </g>
</svg>
