<?xml version="1.0" encoding="UTF-8" standalone="no"?>
<!DOCTYPE svg PUBLIC "-//W3C//DTD SVG 1.1//EN" "http://www.w3.org/Graphics/SVG/1.1/DTD/svg11.dtd">
<svg width="100%" height="100%" viewBox="0 0 250 250" version="1.1" xmlns="http://www.w3.org/2000/svg" xmlns:xlink="http://www.w3.org/1999/xlink" xml:space="preserve" xmlns:serif="http://www.serif.com/" style="fill-rule:evenodd;clip-rule:evenodd;stroke-linejoin:round;stroke-miterlimit:2;">
    <g transform="matrix(1.17143,0,0,1.17143,-21.4286,-21.4286)">
        <path d="M216.68,20L33.34,20C25.977,20 20,25.977 20,33.34L20,216.66C20,224.023 25.977,230 33.34,230L216.66,230C224.023,230 230,224.023 230,216.68L230,33.34C230,25.977 224.023,20 216.68,20ZM135,180.918C135,200.898 123.281,210 106.172,210C90.703,210 79.551,199.629 75,190L90.723,180.488C93.75,185.859 98.359,190 105,190C111.348,190 115,187.52 115,177.871L115,115L135,115L135,180.918ZM178.379,210C160.664,210 150.605,201.074 145,190L160,180C164.082,186.68 168.535,193.066 177.949,193.066C185.859,193.066 190,189.121 190,183.652C190,177.129 185.703,174.805 177.012,170.996L172.246,168.945C158.477,163.086 149.316,155.742 149.316,140.195C149.316,125.898 160.234,115 177.266,115C189.395,115 198.105,119.219 204.395,130.273L189.551,139.824C186.27,133.945 182.754,131.641 177.266,131.641C171.68,131.641 168.145,135.195 168.145,139.824C168.145,145.547 171.68,147.852 179.863,151.406L184.629,153.457C200.859,160.391 210,167.48 210,183.418C210,200.586 196.504,210 178.379,210Z" style="fill:rgb(247,216,0);fill-rule:nonzero;"/>
    </g>
</svg>
