<?xml version="1.0" encoding="UTF-8" standalone="no"?>
<!DOCTYPE svg PUBLIC "-//W3C//DTD SVG 1.1//EN" "http://www.w3.org/Graphics/SVG/1.1/DTD/svg11.dtd">
<svg width="100%" height="100%" viewBox="0 0 24 24" version="1.1" xmlns="http://www.w3.org/2000/svg" xmlns:xlink="http://www.w3.org/1999/xlink" xml:space="preserve" xmlns:serif="http://www.serif.com/" style="fill-rule:evenodd;clip-rule:evenodd;stroke-linejoin:round;stroke-miterlimit:2;">
    <path d="M3,16L3,5C3,2.243 5.243,0 8,0L16,0C18.757,0 21,2.243 21,5L21,16L3,16ZM21,18L21,19C21,21.757 18.757,24 16,24L8,24C5.243,24 3,21.757 3,19L3,18L21,18ZM14,21C14,20.448 13.553,20 13,20L11,20C10.447,20 10,20.448 10,21C10,21.552 10.447,22 11,22L13,22C13.553,22 14,21.552 14,21Z" style="fill:rgb(233,255,112);fill-rule:nonzero;"/>
</svg>
