<?xml version="1.0" encoding="UTF-8" standalone="no"?>
<!DOCTYPE svg PUBLIC "-//W3C//DTD SVG 1.1//EN" "http://www.w3.org/Graphics/SVG/1.1/DTD/svg11.dtd">
<svg width="100%" height="100%" viewBox="0 0 106 167" version="1.1" xmlns="http://www.w3.org/2000/svg" xmlns:xlink="http://www.w3.org/1999/xlink" xml:space="preserve" xmlns:serif="http://www.serif.com/" style="fill-rule:evenodd;clip-rule:evenodd;stroke-linejoin:round;stroke-miterlimit:2;">
    <g id="Frame-08" serif:id="Frame 08" transform="matrix(-1,0,0,1,294,-57)">
        <path d="M224,79L220,79L220,87L224,87L224,83L233,83L233,68L224,68L224,79Z" style="fill:rgb(166,124,82);"/>
        <rect x="220" y="127" width="8" height="7" style="fill:rgb(166,124,82);"/>
        <rect x="228.5" y="202" width="4.5" height="8" style="fill:white;"/>
        <rect x="213" y="206" width="4" height="4" style="fill:white;"/>
        <rect x="208" y="210" width="5" height="3" style="fill:white;"/>
        <rect x="224" y="87" width="4" height="8" style="fill:white;"/>
        <path d="M217,68L213,68L213,83L220,83L220,79L224,79L224,68L233,68L233,62L217,62L217,68Z"/>
        <path d="M233,166L233,158L229,158L229,150L224,150L224,134L220,134L220,127L228,127L228,95L224,95L224,87L217,87L217,91L213,91L213,111L209,111L209,142L212,142L212,147L216,147L216,190L213,190L213,206L220,206L220,190L224.5,190L224.5,166L228,166L228,202L237,202L237,166L233,166Z"/>
        <path d="M229,213L229,206L224.5,206L224.5,219L233.5,219L233.5,213L229,213Z"/>
        <rect x="208" y="213" width="12" height="6"/>
    </g>
</svg>
