<?xml version="1.0" encoding="UTF-8" standalone="no"?>
<!DOCTYPE svg PUBLIC "-//W3C//DTD SVG 1.1//EN" "http://www.w3.org/Graphics/SVG/1.1/DTD/svg11.dtd">
<svg width="100%" height="100%" viewBox="0 0 106 167" version="1.1" xmlns="http://www.w3.org/2000/svg" xmlns:xlink="http://www.w3.org/1999/xlink" xml:space="preserve" xmlns:serif="http://www.serif.com/" style="fill-rule:evenodd;clip-rule:evenodd;stroke-linejoin:round;stroke-miterlimit:2;">
    <g id="Frame-05" serif:id="Frame 05" transform="matrix(-1,0,0,1,294,-57)">
        <path d="M273,67L269,67L269,84L276,84L276,79L280,79L280,67L288,67L288,63L273,63L273,67Z"/>
        <g transform="matrix(1,0,0,4.44444,0,-304.111)">
            <path d="M280,89.8L280,88L273,88L273,88.9L269,88.9L269,89.8L267.5,89.8L267.5,93.4L265,93.4L265,96.888L264,96.888L264,98.575L260,98.575L260,100.375L269,100.375L269,105.1L265,105.1L265,107.575L260,107.575L260,111.175L257,111.175L257,112.975L260,112.975L260,113.65L263,113.65L263,112.075L268.25,112.075L268.25,107.575L273,107.575L273,114.775L280,114.775L280,98.575L276,98.575L276,97L284,97L284,89.8L280,89.8Z"/>
        </g>
        <g transform="matrix(1,0,0,1.06667,0,-14.5333)">
            <rect x="248" y="203" width="4" height="15"/>
        </g>
        <rect x="272" y="213" width="17" height="5"/>
        <rect x="280" y="87" width="4" height="8" style="fill:white;"/>
        <path d="M252,206L257,206L257,202L260,202L260,198L252,198L252,206Z" style="fill:white;"/>
        <g transform="matrix(1,0,0,1.16667,0,-34.3333)">
            <rect x="272" y="206" width="4" height="6" style="fill:white;"/>
        </g>
        <path d="M280,79L276,79L276,87L280,87L280,83L288,83L288,67L280,67L280,79Z" style="fill:rgb(166,124,82);"/>
        <g transform="matrix(1,0,0,1.16667,0,-21.1667)">
            <rect x="276" y="127" width="8" height="6" style="fill:rgb(166,124,82);"/>
        </g>
    </g>
</svg>
